<?xml version="1.0" encoding="UTF-8" standalone="no"?>
<!DOCTYPE svg PUBLIC "-//W3C//DTD SVG 1.1//EN" "http://www.w3.org/Graphics/SVG/1.1/DTD/svg11.dtd">
<svg width="100%" height="100%" viewBox="0 0 260 260" version="1.1" xmlns="http://www.w3.org/2000/svg" xmlns:xlink="http://www.w3.org/1999/xlink" xml:space="preserve" xmlns:serif="http://www.serif.com/" style="fill-rule:evenodd;clip-rule:evenodd;stroke-linecap:round;stroke-linejoin:round;stroke-miterlimit:1.5;">
    <g transform="matrix(1,0,0,1,-586.629,-725.02)">
        <g transform="matrix(-0.301459,-3.50859e-17,3.7642e-17,-0.292115,1169.2,1039.35)">
            <path d="M1169.53,757.244L1169.53,973.343L1389.87,973.343" style="fill:none;stroke:black;stroke-width:141.44px;"/>
        </g>
        <g transform="matrix(1.8459e-17,-0.286498,0.30737,1.78869e-17,517.453,1290.09)">
            <path d="M1169.53,757.244L1169.53,973.343L1389.87,973.343" style="fill:none;stroke:black;stroke-width:141.3px;"/>
        </g>
        <g transform="matrix(0.301459,0,0,0.292115,264.063,670.692)">
            <path d="M1169.53,757.244L1169.53,973.343L1389.87,973.343" style="fill:none;stroke:black;stroke-width:141.44px;"/>
        </g>
        <g transform="matrix(-5.53771e-17,0.286498,-0.30737,-5.36607e-17,915.806,419.951)">
            <path d="M1169.53,757.244L1169.53,973.343L1389.87,973.343" style="fill:none;stroke:black;stroke-width:141.3px;"/>
        </g>
    </g>
</svg>
